<?xml version="1.0" standalone="no"?>
<svg viewBox="0 0 200 200" xmlns="http://www.w3.org/2000/svg">
  <mask id="mask0" mask-type="alpha">
  <path d="M38,-28.9C49.9,-15.5,60.4,0.4,57.9,13.9C55.3,27.4,39.6,38.6,21.6,48.7C3.6,58.8,-16.7,67.9,-30,61.7C-43.3,55.5,-49.5,34.1,-55.6,11.5C-61.7,-11,-67.5,-34.8,-58.2,-47.6C-48.9,-60.4,-24.5,-62.2,-5.7,-57.7C13.1,-53.2,26.2,-42.3,38,-28.9Z" />
  <mask/>
  <g mask="url(#mask0)">
  <path d="M38,-28.9C49.9,-15.5,60.4,0.4,57.9,13.9C55.3,27.4,39.6,38.6,21.6,48.7C3.6,58.8,-16.7,67.9,-30,61.7C-43.3,55.5,-49.5,34.1,-55.6,11.5C-61.7,-11,-67.5,-34.8,-58.2,-47.6C-48.9,-60.4,-24.5,-62.2,-5.7,-57.7C13.1,-53.2,26.2,-42.3,38,-28.9Z" />

</svg>


